<svg xmlns="http://www.w3.org/2000/svg" id="blob-bat" enable-background="new 0 0 1080 1080" viewBox="0 0 1080 1080"><path fill="#14143f" stroke="#000" stroke-linecap="round" stroke-linejoin="round" stroke-miterlimit="10" stroke-width="10" d="M318.9 208.3c.7-3.9-1.7-7.6-5.6-8.5l-.1 0c-110.5-25.6-226.9 69.7-260 212.8C34.7 493 46.3 571.4 79.7 629.2c2.7 4.7 9.8 3.7 11.1-1.6 17.1-68.4 43.6-168.7 99.8-163.8 43.8 3.8 48.2 50.5 47.9 71.4 0 3.5 4.1 5.5 6.8 3.2 21.7-18.1 90.3-60.6 192.4 16.7 6.3-15.9 11.6-32.6 15.6-50 4.2-18.3 6.9-36.5 8.1-54.3C394.2 433.5 287.2 379 318.9 208.3zM889.4 368.9C778.8 466.3 691 475.2 639.6 467.6c-21.1 33.1-37.4 71.5-47.2 113.7-.4 1.8-.8 3.7-1.2 5.5 3.2-.9 6.4-1.8 9.7-2.6 234.3-56 184.4 112.7 173.3 143.9-.7 2.1 1.1 4.2 3.3 3.7 162.8-35.5 110.7 107.3 81.2 169.6-1.1 2.4 1.3 4.9 3.7 3.8 78.2-33.3 144.8-115.7 169.4-222.2 31.5-136.1-16-267-108.1-317.9C912.7 358.9 898.9 360.4 889.4 368.9z"/><path fill="#8e52ff" stroke="#000" stroke-linecap="round" stroke-linejoin="round" stroke-miterlimit="10" stroke-width="10" d="M670.1,330.5l-39.7,30c-29.4-37.9-91-22.7-91-22.7l-9.8-42.8c-0.3-1.5-1.8-2.5-3.4-2.2	c-73,15-181.8,103.9-212.1,234.8C277.7,684.8,346.6,835,468,863.1c121.4,28.1,249.2-76.6,285.6-233.8c28.1-121.5-6.7-238.9-80-298.8	C672.6,329.7,671.1,329.7,670.1,330.5z"/><path fill="none" stroke="#000" stroke-linecap="round" stroke-linejoin="round" stroke-miterlimit="10" stroke-width="10" d="M662.8 501.8c-22.9 3.1-55.3 11.6-83.5 34.6M437.5 447.2c15.5 14.6 36.9 39.7 44 71.9M465.7 568c-3.8 6-2.6 14.5 2.3 19.7s12.8 7 19.7 5.1c6.9-1.9 12.6-7.1 15.8-13.5.8 12.2 10.5 23.2 22.4 25.6 12 2.4 25.1-4.1 30.6-15"/><path fill="#f9d225" stroke="#000" stroke-linecap="round" stroke-linejoin="round" stroke-miterlimit="10" stroke-width="7" d="M571.2 427.2l.6 21c.1 1.9 1 3.6 2.6 4.6l17.7 11.3c4.7 3 2.7 10.3-2.9 10.5l-21 .6c-1.9.1-3.6 1-4.6 2.6l-11.3 17.7c-3 4.7-10.3 2.7-10.5-2.9l-.6-21c-.1-1.9-1-3.6-2.6-4.6l-17.7-11.3c-4.7-3-2.7-10.3 2.9-10.5l21-.6c1.9-.1 3.6-1 4.6-2.6l11.3-17.7C563.7 419.5 571 421.6 571.2 427.2zM276.2 370.8l9.4 17.4c.8 1.6 2.4 2.6 4.2 2.8l19.7 2.1c5.3.6 6.6 7.6 2 10.1l-17.4 9.4c-1.6.8-2.6 2.4-2.8 4.2l-2.1 19.7c-.6 5.3-7.6 6.6-10.1 2l-9.4-17.4c-.8-1.6-2.4-2.6-4.2-2.8l-19.7-2.1c-5.3-.6-6.6-7.6-2-10.1l17.4-9.4c1.6-.8 2.6-2.4 2.8-4.2l2.1-19.7C266.7 367.5 273.7 366.1 276.2 370.8zM909.5 438.3l-7.6 18.3c-.7 1.6-.5 3.5.5 5l10.8 16.6c2.9 4.4-1.7 9.9-6.6 7.9l-18.3-7.6c-1.6-.7-3.5-.5-5 .5l-16.6 10.8c-4.4 2.9-9.9-1.7-7.9-6.6l7.6-18.3c.7-1.6.5-3.5-.5-5l-10.8-16.6c-2.9-4.4 1.7-9.9 6.6-7.9l18.3 7.6c1.6.7 3.5.5 5-.5l16.6-10.8C906.1 428.9 911.6 433.5 909.5 438.3zM138.9 412.8l-9.4 17.4c-.8 1.6-.9 3.4 0 5l9.1 17.6c2.4 4.7-2.7 9.7-7.3 7.2l-17.4-9.4c-1.6-.8-3.4-.9-5 0l-17.6 9.1c-4.7 2.4-9.7-2.7-7.2-7.3l9.4-17.4c.8-1.6.9-3.4 0-5l-9.1-17.6c-2.4-4.7 2.7-9.7 7.3-7.2l17.4 9.4c1.6.8 3.4.9 5 0l17.6-9.1C136.4 403 141.4 408.1 138.9 412.8zM977.3 711.2l-9.4 17.4c-.8 1.6-.9 3.4 0 5l9.1 17.6c2.4 4.7-2.7 9.7-7.3 7.2l-17.4-9.4c-1.6-.8-3.4-.9-5 0l-17.6 9.1c-4.7 2.4-9.7-2.7-7.2-7.3l9.4-17.4c.8-1.6.9-3.4 0-5l-9.1-17.6c-2.4-4.7 2.7-9.7 7.3-7.2l17.4 9.4c1.6.8 3.4.9 5 0l17.6-9.1C974.8 701.4 979.8 706.5 977.3 711.2zM499.5 723.5l.8 25.8c.1 2.3 1.3 4.4 3.2 5.7l21.8 13.9c5.8 3.7 3.3 12.7-3.5 12.9l-25.8.8c-2.3.1-4.4 1.3-5.7 3.2l-13.9 21.8c-3.7 5.8-12.7 3.3-12.9-3.5l-.8-25.8c-.1-2.3-1.3-4.4-3.2-5.7l-21.8-13.9c-5.8-3.7-3.3-12.7 3.5-12.9L467 745c2.3-.1 4.4-1.3 5.7-3.2l13.9-21.8C490.3 714.2 499.3 716.7 499.5 723.5z"/><path fill="none" stroke="#000" stroke-linecap="round" stroke-linejoin="round" stroke-miterlimit="10" stroke-width="3" d="M763.2,536.4c-0.7-28-4.7-55-11.7-80.1"/><path fill="#fff" stroke="#000" stroke-linecap="round" stroke-linejoin="round" stroke-miterlimit="10" stroke-width="4" d="M498.1 381.8c-1.9-4.6-5-8.8-8.9-12.2 2.1-4.7 3.2-9.8 2.9-14.8-4.6 1.9-8.8 5-12.2 8.9-4.7-2.1-9.8-3.2-14.8-2.9 1.9 4.6 5 8.8 8.9 12.2-2.1 4.7-3.2 9.8-2.9 14.8 4.6-1.9 8.8-5 12.2-8.9C488 381 493.1 382.1 498.1 381.8zM684.1 413.7c-3.1-3.2-7.1-5.6-11.4-7.1.1-4.6-.7-9.2-2.6-13.2-3.2 3.1-5.6 7.1-7 11.4-4.6-.1-9.2.7-13.2 2.6 3.1 3.2 7.1 5.6 11.4 7.1-.1 4.6.7 9.2 2.6 13.2 3.2-3.1 5.6-7.1 7.1-11.4C675.5 416.4 680.1 415.5 684.1 413.7zM656.6 682.2c-6-3.2-12.9-4.9-19.9-5-1.9-6.7-5.2-13-9.8-18-3.2 6-4.9 12.8-5 19.8-6.7 1.9-13 5.2-18 9.8 6 3.3 12.8 4.9 19.8 5.1 1.9 6.7 5.2 13 9.8 18 3.3-6 4.9-12.9 5.1-19.9C645.3 690.1 651.6 686.8 656.6 682.2zM391.4 637.9c-2.3-5.7-6.2-10.8-10.9-14.9 2.5-5.8 3.9-12 3.5-18.1-5.7 2.3-10.8 6.2-14.9 10.9-5.8-2.6-12-3.9-18.2-3.5 2.3 5.7 6.1 10.8 10.9 14.9-2.6 5.8-3.9 12-3.5 18.1 5.7-2.3 10.8-6.1 14.9-10.9C379 637 385.3 638.3 391.4 637.9zM191.8 309c2.9-6 4.3-12.8 4.2-19.6 6.5-2.1 12.6-5.6 17.3-10.2-5.9-2.9-12.8-4.3-19.6-4.2-2.1-6.5-5.5-12.6-10.2-17.3-3 6-4.3 12.8-4.2 19.6-6.5 2.1-12.6 5.5-17.3 10.2 6 3 12.8 4.3 19.6 4.2C183.7 298.3 187.1 304.3 191.8 309zM912.2 615.9c2.9-5.9 4.3-12.7 4.2-19.5 6.5-2.1 12.5-5.5 17.2-10.2-5.9-2.9-12.7-4.3-19.5-4.2-2.1-6.5-5.5-12.5-10.2-17.2-3 5.9-4.3 12.7-4.2 19.5-6.5 2.1-12.5 5.5-17.2 10.2 5.9 3 12.7 4.3 19.5 4.2C904.1 605.2 907.5 611.2 912.2 615.9z"/></svg>