<svg xmlns="http://www.w3.org/2000/svg" xmlns:xlink="http://www.w3.org/1999/xlink" id="casper" enable-background="new 0 0 1080 1080" viewBox="0 0 1080 1080"><path fill="#f9d225" stroke="#000" stroke-linecap="round" stroke-linejoin="round" stroke-miterlimit="10" stroke-width="10" d="M873.8,323.6c-49-207-165-219-220-219c-48,0-140.3,7.2-224,160c-177,323-302,555-209,601 c68.6,33.9,98.9-57,151-39c55,19-21.3,92.5,67,112c104,23,132.7-88,188-82c74,8,47,88,108,96C867.8,974.6,921.3,524.4,873.8,323.6z"/><line x1="763.7" x2="676.7" y1="265" y2="337.9" fill="none" stroke="#000" stroke-linecap="round" stroke-linejoin="round" stroke-miterlimit="10" stroke-width="30"/><line x1="756.9" x2="684" y1="345.3" y2="258.3" fill="none" stroke="#000" stroke-linecap="round" stroke-linejoin="round" stroke-miterlimit="10" stroke-width="30"/><line x1="588.9" x2="501.9" y1="255.7" y2="328.6" fill="none" stroke="#000" stroke-linecap="round" stroke-linejoin="round" stroke-miterlimit="10" stroke-width="30"/><line x1="582.2" x2="509.2" y1="336" y2="249" fill="none" stroke="#000" stroke-linecap="round" stroke-linejoin="round" stroke-miterlimit="10" stroke-width="30"/><path fill="#f06c41" stroke="#000" stroke-linecap="round" stroke-linejoin="round" stroke-miterlimit="10" stroke-width="10" d="M542,757.2c57.1,15.8,106.8,16.7,110.9,1.8c0,0,7-25.1,7-25.1c4.1-14.9-38.9-39.7-96-55.6 c-57.1-15.8-106.8-16.7-110.9-1.8c0,0-6.9,25.1-7,25.1C441.8,716.4,484.8,741.3,542,757.2z"/><path fill="#ffe266" d="M553.9,729.2c53.2,14.8,99.6,14.9,103.7,0.3c0.2-0.6,0.2-0.9,0.3-1.8L693.6,597 c14.8-53.2-16.4-108.3-69.6-123.1c-53.2-14.8-108.3,16.4-123.1,69.6L464.7,676l0.2,0.1C460.8,690.6,500.7,714.4,553.9,729.2z"/><path fill="#ff9985" stroke="#000" stroke-linecap="round" stroke-linejoin="round" stroke-miterlimit="10" stroke-width="10" d="M548.7,729.9c57.1,15.3,106.8,15.9,110.9,1.3c4.2-14.6-38.7-38.8-95.8-54c-57.1-15.3-106.8-15.9-110.9-1.3 C448.7,690.4,491.6,714.6,548.7,729.9z"/><path fill="#f2f2f2" stroke="#000" stroke-linecap="round" stroke-linejoin="round" stroke-miterlimit="10" stroke-width="10" d="M524.1,620.1c3.9,6.9-19.4,8.7-14.2,17.9c5.2,9.2,21.1-5.2,22.9-1.4c3,6-17,8-13,17c4.2,9.5,18-2,26-4 c5.3-1.3,12.6-2,18.9,6.2c6.3,8.2,22.5,24.3,53.1,11.6c22.7-9.5,62.8-54.4,30.8-99.9c0,0-32.8-42.9-80-33 c-34.3,7.2-43.8,28.7-44,45.2c-0.1,6.6-3.3,12.8-8.8,16.6c-8.8,6-19.7,15.4-15.8,23.4C505,630,519.8,612.6,524.1,620.1z"/><path d="M607.3 622.3C607.3 622.3 607.3 622.3 607.3 622.3c-.5-5-2.7-9.8-6.5-13.4-9.1-8.7-24.3-7.5-33.8 2.5-6.8 7.2-8.9 16.9-6.2 25.1 1.1 3.3 2.9 6.3 5.5 8.8 9.1 8.7 24.3 7.5 33.8-2.5C605.6 637 608 629.4 607.3 622.3zM560.5 565.7c-6.7-5.7-17.7-3.7-24.5 4.3-4.7 5.6-6.1 12.6-4.3 18.2.8 2.6 2.2 4.8 4.3 6.6 6.7 5.7 17.7 3.7 24.5-4.3 3.5-4.2 5.2-9.3 5.1-13.9C565.4 572.4 563.8 568.4 560.5 565.7z"/><defs><path id="a" d="M547.1,604.6c0,0-15,2.1-15.8,7.4 c-0.8,5.3,9.5,2.4,12.1,1.9c0,0-6.4,10.6-1.3,13.3c5.1,2.7,9-11.7,9.6-16.8C552.1,605.6,552.1,603.7,547.1,604.6z"/></defs><use overflow="visible" xlink:href="#a"/><polygon fill="#fff" points="629.2 512.7 630.2 508.2 628.6 503.9 633.1 504.9 637.5 503.3 636.5 507.8 638.1 512.1 633.5 511.1"/><polygon fill="#fff" points="545.1 689.2 545.7 684.7 548.7 681.2 544.2 680.5 540.7 677.5 540 682.1 537 685.6 541.6 686.2"/><polygon fill="#fff" points="640.5 684.5 642.5 680.4 646.5 678 642.3 675.9 639.9 672 637.9 676.1 633.9 678.5 638.1 680.6"/><polygon fill="#fff" points="534.4 520.2 537.9 517.1 539.1 512.7 542.2 516.1 546.6 517.3 543.2 520.4 541.9 524.9 538.9 521.4"/><path fill="none" stroke="#fff" stroke-linecap="round" stroke-linejoin="round" stroke-miterlimit="10" stroke-width="10" d="M605.5,477.6c0,0-45.2-7.3-81.9,32.8"/><line x1="679.3" x2="663.2" y1="615.2" y2="673.3" fill="none" stroke="#fff" stroke-linecap="round" stroke-linejoin="round" stroke-miterlimit="10" stroke-width="3"/><path fill="#f9d225" d="M830.3,680.8l27.5-171.2c0,0-187-2-216.2,88.9C610.5,694.8,830.3,680.8,830.3,680.8z"/><path fill="none" stroke="#000" stroke-linecap="round" stroke-linejoin="round" stroke-miterlimit="10" stroke-width="10" d="M691.9,543.7c-24.6,12.9-43.5,30.6-50.4,54.8c-27.5,97.4,188.8,82.3,188.8,82.3"/><path fill="#f9d225" d="M515.1,609.1c38.5-53.8-113.2-173.2-113.2-173.2s-62.6,73-41.8,134.3C381,631.5,476.6,662.9,515.1,609.1z"/><path fill="none" stroke="#000" stroke-linecap="round" stroke-linejoin="round" stroke-miterlimit="10" stroke-width="10" d="M494,532.4c21.9,29.7,34.2,58.3,21.1,76.6c-38.5,53.8-134.1,22.4-155-38.9"/><path fill="#f06c41" stroke="#000" stroke-linecap="round" stroke-linejoin="round" stroke-miterlimit="10" stroke-width="10" d="M680.4,421.6c0,0,20.3,68,96.3,55s75-70,43-90s-59-12-59-12S718.1,409.6,680.4,421.6z"/><path fill="none" stroke="#000" stroke-linecap="round" stroke-linejoin="round" stroke-miterlimit="10" stroke-width="10" d="M455.3 381.1c0 0 121 133 306.5-6M728.7 399.6c13.5 9.7 25.3 21.8 34.7 35.5"/></svg>