<svg xmlns="http://www.w3.org/2000/svg" xmlns:xlink="http://www.w3.org/1999/xlink" enable-background="new 0 0 1080 1080" viewBox="0 0 1080 1080" id="cat-reaper"><path fill="#f9d225" stroke="#000" stroke-linecap="round" stroke-linejoin="round" stroke-miterlimit="10" stroke-width="10" d="M346.3,196.9c-3-7.7-12.4-10.8-19.5-6.4c-14.8,9-34.9,24-26.2,35.2c13.1,17.1,34.7,23.9,43.7,48.1
	s6.7,31.3,26.8,21.5c11.5-5.6,11.1-9,10.3-10.8L346.3,196.9z"></path><path fill="#ffecd4" stroke="#000" stroke-linecap="round" stroke-linejoin="round" stroke-miterlimit="10" stroke-width="10" d="M356.2,195.3c0,0,182.2-138.8,421.2,54.2c0,0-242.9-56.6-368.4,32.2L356.2,195.3z"></path><path fill="#14143f" stroke="#000" stroke-linecap="round" stroke-linejoin="round" stroke-miterlimit="10" stroke-width="10" d="M721.5,1010.2L721.5,1010.2c-12.1,12.6-33.2,8.6-39.9-7.5L328.3,169.1c-2.4-5.8,1.4-12.4,7.7-13.1l27.5-3.3
	c11.2-1.3,22,4.9,26.4,15.3l340.8,792.6C737.8,977.5,734.2,997,721.5,1010.2z"></path><path fill="#ffecd4" stroke="#000" stroke-linecap="round" stroke-linejoin="round" stroke-miterlimit="10" stroke-width="10" d="M335.6,780.5c0,0-86.4,70.2-122.7,82.8c-35.5,12.3-33.9-9-33.9-9s-23.2,3.2-16.8-23.8c0,0-23-11.8-6.4-30.2
	c0,0-13.2-14.4,3.1-26.6c15.6-11.7,121.6-66.5,121.6-66.5L335.6,780.5z"></path><path fill="#8e52ff" stroke="#000" stroke-linecap="round" stroke-linejoin="round" stroke-miterlimit="10" stroke-width="10" d="M361.4,612.5l-107.8,87.1c-11.9,9.6-17,25.3-13.1,40.1c5.2,19.8,17.1,48.1,43.7,75
	c10.6,10.7,26.5,14.2,40.6,9.1l124.5-45.2L361.4,612.5z"></path><path fill="#8e52ff" stroke="#000" stroke-linecap="round" stroke-linejoin="round" stroke-miterlimit="10" stroke-width="10" d="M316.6,630.5c0,0,7.5,318.3,294.9,309.9c241-7,260-192,245-212c-28.3-37.8-96,25-136-6
	c-19.9-15.5-102.9-152-102.9-152L316.6,630.5z"></path><path fill="none" stroke="#000" stroke-linecap="round" stroke-linejoin="round" stroke-miterlimit="10" stroke-width="33" d="M327.6,647.4c0,0,276.3,247.6,385.3,83.6"></path><path fill="#8e52ff" stroke="#000" stroke-linecap="round" stroke-linejoin="round" stroke-miterlimit="10" stroke-width="10" d="M604,570.3l127.7-14.9l62.7,123.6c0,0-74.4,53.4-128.2,76C547.4,782.5,485.4,591.5,604,570.3z"></path><path fill="#4f4f4f" stroke="#000" stroke-linecap="round" stroke-linejoin="round" stroke-miterlimit="10" stroke-width="10" d="M795.2,678.9c-5.5,2.9-16.3-6.2-28-22c-6.4-8.7-13.1-19.5-19.4-31.5c-9.1-17.4-15.4-34.1-18.4-46.8
	c-2.8-12.1-2.4-20.6,1.7-22.7c4.1-2.1,11,2.3,19.1,11.1c8.8,9.7,19,24.7,28.3,42.4c7.4,14.1,12.9,27.8,16.3,39.2
	C799.6,664.6,800.1,676.3,795.2,678.9z"></path><path fill="#ffecd4" stroke="#000" stroke-linecap="round" stroke-linejoin="round" stroke-miterlimit="10" stroke-width="10" d="M909.4,598.1c0,0,9.7,18.8-17.6,29.3c-13.2,5.1-51.3,16.8-87.1,27.5c-11.2,3.4-22.2,6.6-32.2,9.6
	c-7.5-10.1-15.2-22.6-22.5-36.6c-10.5-20.2-17.9-39.6-21.3-54.4c7.3-4.2,15.5-8.8,24.2-13.5c49-26.4,112.7-55.2,121.7-32.1
	c0,0,36.2-7,29.1,28.3C903.7,556.2,937.7,568.9,909.4,598.1z"></path><path fill="none" stroke="#000" stroke-linecap="round" stroke-linejoin="round" stroke-miterlimit="10" stroke-width="33" d="M604,570.3c0,0-154.2,121-185.2,289"></path><path fill="#8e52ff" stroke="#000" stroke-linecap="round" stroke-linejoin="round" stroke-miterlimit="10" stroke-width="10" d="M272.4,597.5l38-183c11-50,42.1-54.8,71-64.8c75-25.9,204.7-59.8,311.8-17.5c16.5,6.5,29.3,20.1,34.7,37
	c7.5,23.3,14.2,63.1,6.5,124.2c-10.2,80.4-45.2,63.9-63.3,49.2c-4.6-3.7-3.7-10.9,1.7-13.3c8.6-3.8,17.9-12.9,15.6-34.9
	c-2.1-20.7-27.1-30.9-45.4-29.8c-5,0.3-10.6,1.9-8.5,8c1.7,5.2,4.2,10.1,6.2,15.2c3.1,8.1,6.4,16.2,9.5,24.3
	c6.3,16.6,2.4,35.3-10,48l-23.6,24.2L272.4,597.5z"></path><path fill="#14143f" stroke="#000" stroke-linecap="round" stroke-linejoin="round" stroke-miterlimit="10" stroke-width="10" d="M310.4,502.5l-37.9,94.8c-2.5,6.3-1,13.6,3.9,18.3c22.5,21.7,89.1,79.4,159,76.9c86-3,197-125,197-125
	S409.1,281.3,310.4,502.5z"></path><path fill="#707070" d="M310.4,502.5"></path><circle cx="202.4" cy="843.9" r="10" fill="#ff653c" stroke="#000" stroke-linecap="round" stroke-linejoin="round" stroke-miterlimit="10" stroke-width="7"></circle><circle cx="182.9" cy="819" r="10" fill="#ff653c" stroke="#000" stroke-linecap="round" stroke-linejoin="round" stroke-miterlimit="10" stroke-width="7"></circle><circle cx="174.2" cy="789" r="10" fill="#ff653c" stroke="#000" stroke-linecap="round" stroke-linejoin="round" stroke-miterlimit="10" stroke-width="7"></circle><path fill="#ff653c" stroke="#000" stroke-linecap="round" stroke-linejoin="round" stroke-miterlimit="10" stroke-width="7" d="M202.6,782.2c-13.5,15.7,9.8,22.3,9.8,22.3s-4.1,23.9,15.9,18.4c13.4-3.7,18.3-18.2,20.1-29
	c1.3-8-3.1-15-10.9-17.3C226.9,773.5,211.7,771.7,202.6,782.2z"></path><path fill="#ffecd4" stroke="#000" stroke-linecap="round" stroke-linejoin="round" stroke-miterlimit="10" stroke-width="10" d="M589.5,510.2c6-30.3,32-115.7,1-125.1c-31-9.4-99.8,25.4-99.8,25.4l0.5,0.5c-20.5-5.5-43-6.9-66.3-3.1
	c-24.6,3.9-46.8,12.9-65.6,25.5c0,0-52.7-31.8-77.7-15.8c-25,16,20.8,149.6,20.8,149.6l0.2-0.5c6.9,22.7,25.1,42,64.9,48.8
	c4.8,2.5,10,6.1,11.1,10c2.2,7.8,1,13,12,13c18.4,0,10-14,21-15c7.2-0.7,0,15,17,14c16.3-1,9.1-14.6,18-16s3.1,14.4,19,11
	c17.1-3.7,6-16.6,16.4-20.4c1.1-0.4,2.4-0.9,3.8-1.4C540.9,601.4,604.6,577.5,589.5,510.2C589.5,510.2,589.5,510.2,589.5,510.2z"></path><path d="M516.1 480.4c-.1-.1-.2-.3-.3-.4-11.6-15.3-38.7-14.2-60.4 2.3-21.8 16.5-30 42.3-18.4 57.6 1.9 2.5 4.2 4.6 6.9 6.2 13.5 8.3 35.3 5.3 53.5-8.6C519 521.2 527.2 495.7 516.1 480.4zM377.2 503.9c-1.3-1.2-2.7-2.4-4-3.4-17.6-13.9-39.3-15.9-50.3-4.1-11.9 12.7-6.7 36.8 11.4 53.7 5.5 5.1 11.5 8.9 17.5 11.5 14.1 6 28.5 5 36.8-3.9C400.5 544.9 395.4 520.8 377.2 503.9z"></path><defs><path id="a" d="M388.7,581.7c-1,2.8-1.8,6.2,0.2,8.5
				c1.6,1.9,4.5,2,7,1.6c5.5-0.9,10.5-4,13.9-8.4c1.1-1.4,2.3-3.1,4.1-3.4c1.6-0.2,3.1,0.9,4.3,1.9c4,3.3,8.3,6.6,13.4,7.6
				c5.1,0.9,11.2-1.3,12.8-6.3c1.3-4-0.6-8.3-2.9-11.9c-4.3-6.9-19.7-26.8-29.4-24c-5,1.4-10.8,11.1-13.6,15.2
				C394.5,568.5,391.1,574.9,388.7,581.7z"></path></defs><use overflow="visible" xlink:href="#a"></use><path fill="#ff653c" stroke="#000" stroke-linecap="round" stroke-linejoin="round" stroke-miterlimit="10" stroke-width="7" d="M855.5,608.9c15.8-13.4-6.2-23.5-6.2-23.5s7.8-23-12.8-20.7c-13.8,1.5-20.9,15.1-24.4,25.5
	c-2.5,7.7,0.7,15.3,8.1,18.8C830.1,613.8,844.8,617.9,855.5,608.9z"></path><circle cx="881.6" cy="569" r="10" fill="#ff653c" stroke="#000" stroke-linecap="round" stroke-linejoin="round" stroke-miterlimit="10" stroke-width="7"></circle><circle cx="885.2" cy="601.5" r="10" fill="#ff653c" stroke="#000" stroke-linecap="round" stroke-linejoin="round" stroke-miterlimit="10" stroke-width="7"></circle><circle cx="856.5" cy="545.2" r="10" fill="#ff653c" stroke="#000" stroke-linecap="round" stroke-linejoin="round" stroke-miterlimit="10" stroke-width="7"></circle></svg>